<?xml version="1.0" encoding="UTF-8"?>
<svg id="logo" xmlns="http://www.w3.org/2000/svg" viewBox="0 0 18.1 17.95">
  <defs>
    <style>
      .cls-1 {
        fill: #01639d;
      }
    </style>
  </defs>
  <path class="cls-1" d="M13.51,9.83c-1.29.41-2.63.08-2.62-1.65,0-2.64,6.19-4.85,7.05-7.15.21-.57.23-1.05-.05-1.03-.2.01-.04.3-.48.73-2.56,2.57-6.86,2.56-10.16,4.04C5.09,5.74-1.24,8.72.22,15.37c.07.32.26,1.37.45,1.37.22,0,.22-.63.22-1.39-.05-3.96,4.64-5.06,6.17-7.65.18-.31.5-.74.57-.54.04.1.01.24-.05.52-.48,2.13-2.7,3.49-2.07,5.01.82,1.97,3.17.5,3.9-.77.19-.35.3-.57.43-.53.1.03.09.43.03.8-.39,2.29-.91,3.57-2.59,4.88-.54.42-1.38.5-1.27.82.03.08.39.07.68.04,4.46-.29,8.19-5.54,9.18-8.98.1-.24.13-.47.03-.55-.13-.1-.33.13-.53.31-.51.45-1.21.91-1.85,1.12Z"/>
</svg>